<svg width="753" height="496" viewBox="0 0 753 496" fill="none" xmlns="http://www.w3.org/2000/svg">
<mask id="mask0_6_13" style="mask-type:alpha" maskUnits="userSpaceOnUse" x="0" y="0" width="753" height="496">
<path d="M354.5 0C635.5 -1.91033e-05 899.5 573.233 656.5 487.117C413.5 401 296 401 87.5 487.117C-121 573.233 73.5002 1.91033e-05 354.5 0Z" fill="#26FFD8"/>
</mask>
<g mask="url(#mask0_6_13)">
<path d="M354.442 0C635.442 -1.91033e-05 899.441 573.233 656.442 487.117C413.442 401 295.942 401 87.4418 487.117C-121.058 573.233 73.4419 1.91033e-05 354.442 0Z" fill="#26FFD8"/>
<path d="M285 240.5C336.829 213.065 379.58 210.503 436 240.5C492.42 270.497 436 575.5 436 575.5H285C285 575.5 233.171 267.935 285 240.5Z" fill="#D9D9D9" fill-opacity="0.8"/>
<ellipse cx="357.5" cy="123" rx="91.5" ry="96" fill="#D9D9D9" fill-opacity="0.8"/>
</g>
</svg>
